<svg xmlns="http://www.w3.org/2000/svg" width="44" height="44"><g fill="none" fill-rule="evenodd"><path fill="#DFEFF7" d="M40.22 43.999H3.782a3.78 3.78 0 0 1-3.78-3.78L0 3.783A3.78 3.78 0 0 1 3.781.002L40.218 0a3.781 3.781 0 0 1 3.78 3.78L44 40.218a3.78 3.78 0 0 1-3.78 3.78"/><path fill="#3CCEA5" d="M21.381 33.489L33.36 21.375c2.966-3 2.966-7.864 0-10.863-2.966-3-7.774-3-10.74 0L10.64 22.625c-2.967 3-2.967 7.864 0 10.864 2.966 3 7.775 3 10.74 0"/><path fill="#3BB896" d="M16.63 16.568l5.909-5.975c3.01-3.046 7.855-3.082 10.82-.082 2.967 3 2.93 7.9-.078 10.945l-5.91 5.977L16.63 16.568z"/></g></svg>